<svg  id='main-title_animated (1).svg' viewBox="0 0 621 63" fill="none" xmlns="http://www.w3.org/2000/svg" style="">
<path d="M600.597 17.28H606.87V22.784C608.15 20.9067 609.941 19.52 612.245 18.624C614.592 17.728 617.301 17.28 620.373 17.28V22.336C617.088 22.336 614.272 22.8693 611.925 23.936C609.579 25.0027 607.958 26.688 607.062 28.992V48H600.597V17.28Z" fill="url(#paint0_linear_0_1)" class="uMbVfTbm_0"></path>
<path d="M578.556 48.96C572.881 48.96 568.423 47.552 565.18 44.736C561.98 41.8773 560.38 37.8667 560.38 32.704C560.38 27.6693 561.809 23.68 564.668 20.736C567.569 17.792 571.687 16.32 577.02 16.32C580.561 16.32 583.569 17.0027 586.044 18.368C588.519 19.6907 590.375 21.5467 591.612 23.936C592.892 26.2827 593.532 28.9707 593.532 32V35.2H566.524C566.737 38.1013 567.953 40.2773 570.172 41.728C572.433 43.136 575.484 43.84 579.324 43.84C581.287 43.84 583.271 43.6693 585.276 43.328C587.281 42.944 589.052 42.4533 590.588 41.856V47.04C589.223 47.5947 587.409 48.0427 585.148 48.384C582.929 48.768 580.732 48.96 578.556 48.96ZM587.452 30.656C587.367 27.7547 586.407 25.5147 584.572 23.936C582.78 22.3147 580.22 21.504 576.892 21.504C573.649 21.504 571.132 22.336 569.34 24C567.548 25.664 566.609 27.8827 566.524 30.656H587.452Z" fill="url(#paint1_linear_0_1)" class="uMbVfTbm_1"></path>
<path d="M519.41 17.28H525.682V21.824C528.839 18.1547 533.106 16.32 538.482 16.32C541.554 16.32 544.306 17.0027 546.738 18.368C549.213 19.7333 551.133 21.6533 552.498 24.128C553.906 26.56 554.61 29.3973 554.61 32.64C554.61 35.84 553.906 38.6773 552.498 41.152C551.133 43.6267 549.234 45.5467 546.802 46.912C544.37 48.2773 541.597 48.96 538.482 48.96C535.922 48.96 533.533 48.5333 531.314 47.68C529.095 46.8267 527.282 45.568 525.874 43.904V62.016H519.41V17.28ZM537.01 43.84C539.101 43.84 540.978 43.392 542.642 42.496C544.349 41.5573 545.671 40.2347 546.61 38.528C547.591 36.8213 548.082 34.8587 548.082 32.64C548.082 30.4213 547.591 28.48 546.61 26.816C545.671 25.1093 544.349 23.808 542.642 22.912C540.978 21.9733 539.101 21.504 537.01 21.504C534.407 21.504 532.103 22.1867 530.098 23.552C528.135 24.9173 526.727 26.7947 525.874 29.184V36.096C526.599 38.4427 527.986 40.32 530.034 41.728C532.082 43.136 534.407 43.84 537.01 43.84Z" fill="url(#paint2_linear_0_1)" class="uMbVfTbm_2"></path>
<path d="M494.852 48.96C491.396 48.96 488.345 48.32 485.7 47.04C483.097 45.7173 481.049 43.84 479.556 41.408C478.105 38.9333 477.38 36.032 477.38 32.704C477.38 29.4187 478.105 26.5387 479.556 24.064C481.007 21.5893 483.055 19.6907 485.7 18.368C488.345 17.0027 491.396 16.32 494.852 16.32C498.308 16.32 501.359 17.0027 504.004 18.368C506.649 19.6907 508.697 21.5893 510.148 24.064C511.641 26.5387 512.388 29.4187 512.388 32.704C512.388 36.032 511.641 38.9333 510.148 41.408C508.697 43.84 506.649 45.7173 504.004 47.04C501.359 48.32 498.308 48.96 494.852 48.96ZM494.852 43.84C498.18 43.84 500.825 42.816 502.788 40.768C504.751 38.72 505.732 36.032 505.732 32.704C505.732 29.248 504.751 26.5173 502.788 24.512C500.825 22.5067 498.18 21.504 494.852 21.504C491.524 21.504 488.879 22.5067 486.916 24.512C484.953 26.5173 483.972 29.248 483.972 32.704C483.972 36.032 484.953 38.72 486.916 40.768C488.879 42.816 491.524 43.84 494.852 43.84Z" fill="url(#paint3_linear_0_1)" class="uMbVfTbm_3"></path>
<path d="M463.848 0.703995H470.311V48H463.848V0.703995Z" fill="url(#paint4_linear_0_1)" class="uMbVfTbm_4"></path>
<path d="M441.806 48.96C436.131 48.96 431.673 47.552 428.43 44.736C425.23 41.8773 423.63 37.8667 423.63 32.704C423.63 27.6693 425.059 23.68 427.918 20.736C430.819 17.792 434.937 16.32 440.27 16.32C443.811 16.32 446.819 17.0027 449.294 18.368C451.769 19.6907 453.625 21.5467 454.862 23.936C456.142 26.2827 456.782 28.9707 456.782 32V35.2H429.774C429.987 38.1013 431.203 40.2773 433.422 41.728C435.683 43.136 438.734 43.84 442.574 43.84C444.537 43.84 446.521 43.6693 448.526 43.328C450.531 42.944 452.302 42.4533 453.838 41.856V47.04C452.473 47.5947 450.659 48.0427 448.398 48.384C446.179 48.768 443.982 48.96 441.806 48.96ZM450.702 30.656C450.617 27.7547 449.657 25.5147 447.822 23.936C446.03 22.3147 443.47 21.504 440.142 21.504C436.899 21.504 434.382 22.336 432.59 24C430.798 25.664 429.859 27.8827 429.774 30.656H450.702Z" fill="url(#paint5_linear_0_1)" class="uMbVfTbm_5"></path>
<path d="M388.693 17.28H395.54L404.565 39.36L413.589 17.28H420.436L407.38 48H401.749L388.693 17.28Z" fill="url(#paint6_linear_0_1)" class="uMbVfTbm_6"></path>
<path d="M370.493 48.96C364.819 48.96 360.36 47.552 357.117 44.736C353.917 41.8773 352.318 37.8667 352.318 32.704C352.318 27.6693 353.747 23.68 356.605 20.736C359.507 17.792 363.624 16.32 368.957 16.32C372.499 16.32 375.507 17.0027 377.982 18.368C380.456 19.6907 382.312 21.5467 383.549 23.936C384.829 26.2827 385.47 28.9707 385.47 32V35.2H358.461C358.675 38.1013 359.891 40.2773 362.109 41.728C364.371 43.136 367.422 43.84 371.262 43.84C373.224 43.84 375.208 43.6693 377.214 43.328C379.219 42.944 380.99 42.4533 382.526 41.856V47.04C381.16 47.5947 379.347 48.0427 377.086 48.384C374.867 48.768 372.669 48.96 370.493 48.96ZM379.389 30.656C379.304 27.7547 378.344 25.5147 376.509 23.936C374.717 22.3147 372.157 21.504 368.829 21.504C365.587 21.504 363.069 22.336 361.277 24C359.485 25.664 358.547 27.8827 358.461 30.656H379.389Z" fill="url(#paint7_linear_0_1)" class="uMbVfTbm_7"></path>
<path d="M308.598 3.26399H322.997C327.819 3.26399 332 4.15999 335.542 5.952C339.083 7.744 341.792 10.304 343.669 13.632C345.589 16.96 346.549 20.8853 346.549 25.408C346.549 32.832 344.395 38.464 340.086 42.304C335.819 46.1013 329.824 48 322.102 48H308.598V3.26399ZM322.038 42.56C328.011 42.56 332.491 41.088 335.478 38.144C338.464 35.2 339.957 30.9547 339.957 25.408C339.957 20.288 338.486 16.2347 335.542 13.248C332.64 10.2613 328.48 8.76799 323.061 8.76799H315.125V42.56H322.038Z" fill="url(#paint8_linear_0_1)" class="uMbVfTbm_8"></path>
<path d="M248.473 0.703995H254.936V48H248.473V0.703995ZM255 32.448L269.145 17.28H277.017L262.809 32.448L278.488 48H270.617L255 32.448Z" fill="url(#paint9_linear_0_1)" class="uMbVfTbm_9"></path>
<path d="M229.665 48.96C226.251 48.96 223.222 48.32 220.577 47.04C217.931 45.76 215.862 43.904 214.368 41.472C212.918 38.9973 212.193 36.0747 212.193 32.704C212.193 29.3333 212.918 26.432 214.368 24C215.862 21.5253 217.931 19.6267 220.577 18.304C223.265 16.9813 226.336 16.32 229.792 16.32C234.486 16.32 238.241 17.2373 241.057 19.072V24.384C238.283 22.464 234.742 21.504 230.432 21.504C226.934 21.504 224.097 22.464 221.921 24.384C219.787 26.2613 218.721 29.0347 218.721 32.704C218.721 36.3733 219.787 39.1467 221.921 41.024C224.054 42.9013 226.849 43.84 230.305 43.84C234.614 43.84 238.326 42.816 241.441 40.768V46.016C239.947 47.04 238.24 47.7867 236.32 48.256C234.443 48.7253 232.225 48.96 229.665 48.96Z" fill="url(#paint10_linear_0_1)" class="uMbVfTbm_10"></path>
<path d="M189.293 48.96C185.581 48.96 182.594 48.0213 180.333 46.144C178.114 44.224 177.005 41.6427 177.005 38.4C177.005 34.9867 178.072 32.3627 180.205 30.528C182.381 28.6507 185.453 27.712 189.421 27.712C193.645 27.712 197.229 28.5653 200.173 30.272V28.672C200.173 26.24 199.426 24.448 197.933 23.296C196.482 22.1013 194.178 21.504 191.021 21.504C189.144 21.504 187.309 21.696 185.517 22.08C183.768 22.4213 182.189 22.912 180.781 23.552V18.304C182.061 17.7067 183.725 17.2373 185.773 16.896C187.821 16.512 189.805 16.32 191.725 16.32C196.802 16.32 200.557 17.4507 202.989 19.712C205.464 21.9307 206.701 25.024 206.701 28.992V48H200.621V44.544C199.298 45.9947 197.72 47.104 195.885 47.872C194.093 48.5973 191.896 48.96 189.293 48.96ZM190.893 44.032C192.941 44.032 194.797 43.6267 196.461 42.816C198.125 42.0053 199.362 40.8747 200.173 39.424V35.264C197.4 33.472 194.306 32.576 190.893 32.576C188.418 32.576 186.562 33.0667 185.325 34.048C184.13 34.9867 183.533 36.4373 183.533 38.4C183.533 42.1547 185.986 44.032 190.893 44.032Z" fill="url(#paint11_linear_0_1)" class="uMbVfTbm_11"></path>
<path d="M167.125 48.96C164.01 48.96 161.6 48.064 159.893 46.272C158.229 44.48 157.397 41.9413 157.397 38.656V22.272H152.725V17.28H157.397V8.064H163.925V17.28H171.477V22.272H163.925V38.208C163.925 40.256 164.309 41.7067 165.077 42.56C165.888 43.4133 167.338 43.84 169.429 43.84C170.666 43.84 171.904 43.5627 173.141 43.008V48.128C171.52 48.6827 169.514 48.96 167.125 48.96Z" fill="url(#paint12_linear_0_1)" class="uMbVfTbm_12"></path>
<path d="M134.076 48.96C131.516 48.96 128.977 48.7253 126.46 48.256C123.985 47.8293 121.959 47.232 120.38 46.464V40.576C124.476 42.496 128.892 43.456 133.628 43.456C140.284 43.456 143.612 41.216 143.612 36.736C143.612 35.2 143.249 33.9627 142.524 33.024C141.799 32.0853 140.753 31.2747 139.388 30.592C138.023 29.8667 135.804 28.8853 132.732 27.648C128.508 25.9413 125.457 24.064 123.58 22.016C121.703 19.968 120.764 17.3867 120.764 14.272C120.764 11.9253 121.404 9.856 122.684 8.064C123.964 6.22933 125.756 4.82133 128.06 3.84C130.364 2.816 133.009 2.304 135.996 2.304C138.428 2.304 140.625 2.496 142.588 2.88C144.551 3.264 146.471 3.88267 148.348 4.736V10.368C144.636 8.704 140.881 7.872 137.084 7.872C134.012 7.872 131.665 8.42667 130.044 9.536C128.423 10.6453 127.612 12.224 127.612 14.272C127.612 15.68 127.953 16.8747 128.636 17.856C129.361 18.7947 130.407 19.648 131.772 20.416C133.18 21.1413 135.249 22.0587 137.98 23.168C141.009 24.4053 143.399 25.5787 145.148 26.688C146.897 27.7973 148.22 29.1627 149.116 30.784C150.055 32.3627 150.524 34.3467 150.524 36.736C150.524 40.6187 149.137 43.6267 146.364 45.76C143.591 47.8933 139.495 48.96 134.076 48.96Z" fill="url(#paint13_linear_0_1)" class="uMbVfTbm_13"></path>
<path d="M83.16 0.703995H89.624V48H83.16V0.703995Z" fill="url(#paint14_linear_0_1)" class="uMbVfTbm_14"></path>
<path d="M68.3475 0.703995H74.8115V48H68.3475V0.703995Z" fill="url(#paint15_linear_0_1)" class="uMbVfTbm_15"></path>
<path d="M42.1965 48.96C38.0578 48.96 34.9218 47.8507 32.7885 45.632C30.6978 43.4133 29.6525 40.448 29.6525 36.736V17.28H36.1165V36.48C36.1165 41.3867 38.5698 43.84 43.4765 43.84C47.7858 43.84 51.1565 41.8987 53.5885 38.016V17.28H60.0525V48H53.7805V43.648C52.3298 45.4827 50.6018 46.8267 48.5965 47.68C46.6338 48.5333 44.5005 48.96 42.1965 48.96Z" fill="url(#paint16_linear_0_1)" class="uMbVfTbm_16"></path>
<path d="M0.16 3.26399H29.664V8.76799H6.688V23.04H23.84V28.224H6.688V48H0.16V3.26399Z" fill="url(#paint17_linear_0_1)" class="uMbVfTbm_17"></path>
<defs>
<linearGradient id="paint0_linear_0_1" x1="600.597" y1="32.64" x2="620.373" y2="32.64" gradientUnits="userSpaceOnUse">
<stop stop-color="#87BAAB"></stop>
<stop offset="1" stop-color="#FFE9F3"></stop>
</linearGradient>
<linearGradient id="paint1_linear_0_1" x1="560.38" y1="32.64" x2="593.532" y2="32.64" gradientUnits="userSpaceOnUse">
<stop stop-color="#87BAAB"></stop>
<stop offset="1" stop-color="#FFE9F3"></stop>
</linearGradient>
<linearGradient id="paint2_linear_0_1" x1="519.41" y1="39.168" x2="554.61" y2="39.168" gradientUnits="userSpaceOnUse">
<stop stop-color="#87BAAB"></stop>
<stop offset="1" stop-color="#FFE9F3"></stop>
</linearGradient>
<linearGradient id="paint3_linear_0_1" x1="477.38" y1="32.64" x2="512.388" y2="32.64" gradientUnits="userSpaceOnUse">
<stop stop-color="#87BAAB"></stop>
<stop offset="1" stop-color="#FFE9F3"></stop>
</linearGradient>
<linearGradient id="paint4_linear_0_1" x1="463.848" y1="24.352" x2="470.311" y2="24.352" gradientUnits="userSpaceOnUse">
<stop stop-color="#87BAAB"></stop>
<stop offset="1" stop-color="#FFE9F3"></stop>
</linearGradient>
<linearGradient id="paint5_linear_0_1" x1="423.63" y1="32.64" x2="456.782" y2="32.64" gradientUnits="userSpaceOnUse">
<stop stop-color="#87BAAB"></stop>
<stop offset="1" stop-color="#FFE9F3"></stop>
</linearGradient>
<linearGradient id="paint6_linear_0_1" x1="388.693" y1="32.64" x2="420.436" y2="32.64" gradientUnits="userSpaceOnUse">
<stop stop-color="#87BAAB"></stop>
<stop offset="1" stop-color="#FFE9F3"></stop>
</linearGradient>
<linearGradient id="paint7_linear_0_1" x1="352.318" y1="32.64" x2="385.47" y2="32.64" gradientUnits="userSpaceOnUse">
<stop stop-color="#87BAAB"></stop>
<stop offset="1" stop-color="#FFE9F3"></stop>
</linearGradient>
<linearGradient id="paint8_linear_0_1" x1="308.598" y1="25.632" x2="346.549" y2="25.632" gradientUnits="userSpaceOnUse">
<stop stop-color="#87BAAB"></stop>
<stop offset="1" stop-color="#FFE9F3"></stop>
</linearGradient>
<linearGradient id="paint9_linear_0_1" x1="248.473" y1="24.352" x2="278.488" y2="24.352" gradientUnits="userSpaceOnUse">
<stop stop-color="#87BAAB"></stop>
<stop offset="1" stop-color="#FFE9F3"></stop>
</linearGradient>
<linearGradient id="paint10_linear_0_1" x1="212.193" y1="32.64" x2="241.441" y2="32.64" gradientUnits="userSpaceOnUse">
<stop stop-color="#87BAAB"></stop>
<stop offset="1" stop-color="#FFE9F3"></stop>
</linearGradient>
<linearGradient id="paint11_linear_0_1" x1="177.005" y1="32.64" x2="206.701" y2="32.64" gradientUnits="userSpaceOnUse">
<stop stop-color="#87BAAB"></stop>
<stop offset="1" stop-color="#FFE9F3"></stop>
</linearGradient>
<linearGradient id="paint12_linear_0_1" x1="152.725" y1="28.512" x2="173.141" y2="28.512" gradientUnits="userSpaceOnUse">
<stop stop-color="#87BAAB"></stop>
<stop offset="1" stop-color="#FFE9F3"></stop>
</linearGradient>
<linearGradient id="paint13_linear_0_1" x1="120.38" y1="25.632" x2="150.524" y2="25.632" gradientUnits="userSpaceOnUse">
<stop stop-color="#87BAAB"></stop>
<stop offset="1" stop-color="#FFE9F3"></stop>
</linearGradient>
<linearGradient id="paint14_linear_0_1" x1="83.16" y1="24.352" x2="89.624" y2="24.352" gradientUnits="userSpaceOnUse">
<stop stop-color="#87BAAB"></stop>
<stop offset="1" stop-color="#FFE9F3"></stop>
</linearGradient>
<linearGradient id="paint15_linear_0_1" x1="68.3475" y1="24.352" x2="74.8115" y2="24.352" gradientUnits="userSpaceOnUse">
<stop stop-color="#87BAAB"></stop>
<stop offset="1" stop-color="#FFE9F3"></stop>
</linearGradient>
<linearGradient id="paint16_linear_0_1" x1="29.6525" y1="33.12" x2="60.0525" y2="33.12" gradientUnits="userSpaceOnUse">
<stop stop-color="#87BAAB"></stop>
<stop offset="1" stop-color="#FFE9F3"></stop>
</linearGradient>
<linearGradient id="paint17_linear_0_1" x1="0.16" y1="25.632" x2="29.664" y2="25.632" gradientUnits="userSpaceOnUse">
<stop stop-color="#87BAAB"></stop>
<stop offset="1" stop-color="#FFE9F3"></stop>
</linearGradient>
</defs>
<style data-made-with="vivus-instant">.uMbVfTbm_0{stroke-dasharray:105 107;stroke-dashoffset:106;animation:uMbVfTbm_draw 2000ms linear 0ms forwards;}.uMbVfTbm_1{stroke-dasharray:209 211;stroke-dashoffset:210;animation:uMbVfTbm_draw 2000ms linear 58ms forwards;}.uMbVfTbm_2{stroke-dasharray:232 234;stroke-dashoffset:233;animation:uMbVfTbm_draw 2000ms linear 117ms forwards;}.uMbVfTbm_3{stroke-dasharray:179 181;stroke-dashoffset:180;animation:uMbVfTbm_draw 2000ms linear 176ms forwards;}.uMbVfTbm_4{stroke-dasharray:108 110;stroke-dashoffset:109;animation:uMbVfTbm_draw 2000ms linear 235ms forwards;}.uMbVfTbm_5{stroke-dasharray:209 211;stroke-dashoffset:210;animation:uMbVfTbm_draw 2000ms linear 294ms forwards;}.uMbVfTbm_6{stroke-dasharray:134 136;stroke-dashoffset:135;animation:uMbVfTbm_draw 2000ms linear 352ms forwards;}.uMbVfTbm_7{stroke-dasharray:209 211;stroke-dashoffset:210;animation:uMbVfTbm_draw 2000ms linear 411ms forwards;}.uMbVfTbm_8{stroke-dasharray:252 254;stroke-dashoffset:253;animation:uMbVfTbm_draw 2000ms linear 470ms forwards;}.uMbVfTbm_9{stroke-dasharray:209 211;stroke-dashoffset:210;animation:uMbVfTbm_draw 2000ms linear 529ms forwards;}.uMbVfTbm_10{stroke-dasharray:149 151;stroke-dashoffset:150;animation:uMbVfTbm_draw 2000ms linear 588ms forwards;}.uMbVfTbm_11{stroke-dasharray:200 202;stroke-dashoffset:201;animation:uMbVfTbm_draw 2000ms linear 647ms forwards;}.uMbVfTbm_12{stroke-dasharray:133 135;stroke-dashoffset:134;animation:uMbVfTbm_draw 2000ms linear 705ms forwards;}.uMbVfTbm_13{stroke-dasharray:205 207;stroke-dashoffset:206;animation:uMbVfTbm_draw 2000ms linear 764ms forwards;}.uMbVfTbm_14{stroke-dasharray:108 110;stroke-dashoffset:109;animation:uMbVfTbm_draw 2000ms linear 823ms forwards;}.uMbVfTbm_15{stroke-dasharray:108 110;stroke-dashoffset:109;animation:uMbVfTbm_draw 2000ms linear 882ms forwards;}.uMbVfTbm_16{stroke-dasharray:171 173;stroke-dashoffset:172;animation:uMbVfTbm_draw 2000ms linear 941ms forwards;}.uMbVfTbm_17{stroke-dasharray:183 185;stroke-dashoffset:184;animation:uMbVfTbm_draw 2000ms linear 1000ms forwards;}@keyframes uMbVfTbm_draw{100%{stroke-dashoffset:0;}}@keyframes uMbVfTbm_fade{0%{stroke-opacity:1;}91.04477611940298%{stroke-opacity:1;}100%{stroke-opacity:0;}}</style></svg>
